<svg width="72" height="72" viewBox="0 0 72 72" fill="none" xmlns="http://www.w3.org/2000/svg">
<path d="M36 45C40.9706 45 45 40.9706 45 36C45 31.0294 40.9706 27 36 27C31.0294 27 27 31.0294 27 36C27 40.9706 31.0294 45 36 45Z" stroke="white" stroke-width="4" stroke-linecap="round" stroke-linejoin="round"/>
<path d="M9 21V15C9 13.4087 9.63214 11.8826 10.7574 10.7574C11.8826 9.63214 13.4087 9 15 9H21" stroke="white" stroke-width="4" stroke-linecap="round" stroke-linejoin="round"/>
<path d="M51 9H57C58.5913 9 60.1174 9.63214 61.2426 10.7574C62.3679 11.8826 63 13.4087 63 15V21" stroke="white" stroke-width="4" stroke-linecap="round" stroke-linejoin="round"/>
<path d="M63 51V57C63 58.5913 62.3679 60.1174 61.2426 61.2426C60.1174 62.3679 58.5913 63 57 63H51" stroke="white" stroke-width="4" stroke-linecap="round" stroke-linejoin="round"/>
<path d="M21 63H15C13.4087 63 11.8826 62.3679 10.7574 61.2426C9.63214 60.1174 9 58.5913 9 57V51" stroke="white" stroke-width="4" stroke-linecap="round" stroke-linejoin="round"/>
</svg>
