<svg width="37" height="36" viewBox="0 0 37 36" fill="none" xmlns="http://www.w3.org/2000/svg">
<path fill-rule="evenodd" clip-rule="evenodd" d="M35.6335 18.409C35.6335 17.1326 35.519 15.9054 35.3062 14.7272H18.3535V21.6899H28.0408C27.6235 23.9399 26.3553 25.8463 24.449 27.1226V31.639H30.2662C33.6699 28.5054 35.6335 23.8908 35.6335 18.409Z" fill="#4285F4"/>
<path fill-rule="evenodd" clip-rule="evenodd" d="M18.3535 36C23.2135 36 27.2881 34.3882 30.2662 31.6391L24.449 27.1228C22.8372 28.2028 20.7753 28.841 18.3535 28.841C13.6653 28.841 9.69716 25.6746 8.2817 21.42H2.26807V26.0837C5.22988 31.9664 11.3172 36 18.3535 36Z" fill="#34A853"/>
<path fill-rule="evenodd" clip-rule="evenodd" d="M8.2817 21.42C7.9217 20.34 7.71715 19.1864 7.71715 18C7.71715 16.8137 7.9217 15.66 8.2817 14.58V9.91638H2.26806C1.04897 12.3464 0.353516 15.0955 0.353516 18C0.353516 20.9046 1.04897 23.6537 2.26806 26.0837L8.2817 21.42Z" fill="#FBBC05"/>
<path fill-rule="evenodd" clip-rule="evenodd" d="M18.3535 7.15909C20.9962 7.15909 23.369 8.06727 25.2344 9.85091L30.3972 4.68818C27.2799 1.78364 23.2053 0 18.3535 0C11.3172 0 5.22988 4.03364 2.26807 9.91636L8.2817 14.58C9.69716 10.3255 13.6653 7.15909 18.3535 7.15909Z" fill="#EA4335"/>
</svg>
